<svg width="25" height="26" viewBox="0 0 25 26" fill="none" xmlns="http://www.w3.org/2000/svg">
    <path d="M8.75 0.5C3.93231 0.5 0 4.43231 0 9.25C0 14.0677 3.93231 18 8.75 18C10.935 18 12.9313 17.185 14.4678 15.8516L15 16.3838V18L21.9824 24.9824C22.6724 25.6724 23.7924 25.6724 24.4824 24.9824C25.1724 24.2924 25.1724 23.1724 24.4824 22.4824L17.5 15.5H15.8838L15.3516 14.9678C16.685 13.4313 17.5 11.435 17.5 9.25C17.5 4.43231 13.5677 0.5 8.75 0.5ZM8.75 3C12.2166 3 15 5.78341 15 9.25C15 12.7166 12.2166 15.5 8.75 15.5C5.28341 15.5 2.5 12.7166 2.5 9.25C2.5 5.78341 5.28341 3 8.75 3Z" fill="white"/>
</svg>
